<svg width="48" height="48" viewBox="0 0 48 48" fill="none" xmlns="http://www.w3.org/2000/svg">
<path d="M48 24.0872C48 37.294 37.255 48 24 48C10.745 48 0 37.294 0 24.0872C0 10.8803 10.745 0.174316 24 0.174316C37.255 0.174316 48 10.8803 48 24.0872Z" fill="white"/>
<path d="M25.0532 47.9756C37.8193 47.4264 48 36.9419 48 24.0872C48 23.9941 47.9974 23.9014 47.9963 23.8084L31.337 7.20923L25.0532 14.139V25.7218V41.8029H18.858L25.0532 47.9756Z" fill="#CDCECE"/>
<path d="M35 7.53814V12.9358C35 12.9358 26.9435 12.0363 26.9435 16.0343V20.0323H34.2203L33.311 26.1294H26.9435V42.0218H18.8871V26.1294L12 26.0294V20.0323H18.7571V15.4345C18.7571 15.4345 18.3112 8.59475 27.0736 7.33845C30.7122 6.81651 35 7.53814 35 7.53814Z" fill="black"/>
<path d="M35 12.9358V7.53814C35 7.53814 30.7122 6.81651 27.0736 7.33845C26.5052 7.41993 25.9766 7.52541 25.4834 7.65016V42.0218H26.9436V26.1294H33.3105L34.2203 20.0323H26.9436C26.9436 20.0323 26.9436 20.0323 26.9436 16.0343C26.9436 12.0363 35 12.9358 35 12.9358Z" fill="black"/>
</svg>
