<svg width="48" height="48" viewBox="0 0 48 48" fill="none" xmlns="http://www.w3.org/2000/svg">
<path d="M47.8688 14.2352C47.7563 11.694 47.3439 9.94701 46.7531 8.43319C46.1436 6.8263 45.2059 5.38766 43.9774 4.19171C42.7771 2.97715 41.3236 2.03338 39.7296 1.43559C38.2015 0.846924 36.4572 0.435987 33.9068 0.323947C31.3373 0.202418 30.5216 0.174316 24.0047 0.174316C17.4878 0.174316 16.6721 0.202418 14.1121 0.314458C11.5617 0.426499 9.80832 0.8378 8.28934 1.4261C6.67623 2.03338 5.23235 2.96766 4.03204 4.19171C2.81305 5.38766 1.86621 6.83579 1.26587 8.42406C0.675059 9.94701 0.262625 11.6845 0.150176 14.2257C0.0282037 16.7859 0 17.5986 0 24.0918C0 30.5851 0.0282037 31.3978 0.140653 33.9485C0.253101 36.4896 0.665902 38.2367 1.25672 39.7505C1.86621 41.3574 2.81305 42.796 4.03204 43.992C5.23235 45.2065 6.68576 46.1503 8.27982 46.7481C9.80832 47.3367 11.5522 47.7477 14.103 47.8597C16.6626 47.9721 17.4786 47.9999 23.9955 47.9999C30.5124 47.9999 31.3282 47.9721 33.8881 47.8597C36.4385 47.7477 38.1919 47.3367 39.7109 46.7481C42.9368 45.5054 45.4872 42.9642 46.7344 39.7505C47.3248 38.2275 47.7376 36.4896 47.8501 33.9485C47.9625 31.3978 47.9907 30.5851 47.9907 24.0918C47.9907 17.5986 47.9812 16.7859 47.8688 14.2352ZM43.5462 33.7616C43.443 36.0973 43.0492 37.3586 42.721 38.1994C41.9145 40.2829 40.2548 41.9365 38.1637 42.7402C37.3198 43.0672 36.0448 43.4595 33.7097 43.562C31.178 43.6744 30.4187 43.7022 24.0142 43.7022C17.6098 43.7022 16.8409 43.6744 14.3184 43.562C11.9741 43.4595 10.7083 43.0672 9.86436 42.7402C8.82375 42.357 7.87654 41.7497 7.10772 40.9556C6.31068 40.18 5.70119 39.2458 5.31659 38.2089C4.9884 37.3681 4.59465 36.0973 4.49172 33.7711C4.37891 31.2485 4.35107 30.4916 4.35107 24.1104C4.35107 17.7293 4.37891 16.9632 4.49172 14.4502C4.59465 12.1145 4.9884 10.8532 5.31659 10.0123C5.70119 8.97514 6.31068 8.03174 7.11724 7.26534C7.89522 6.4712 8.83291 5.86392 9.87388 5.48109C10.7178 5.15409 11.9932 4.76177 14.3279 4.65885C16.8596 4.54681 17.6193 4.51871 24.0234 4.51871C30.4374 4.51871 31.1967 4.54681 33.7192 4.65885C36.0635 4.76177 37.3293 5.15409 38.1732 5.48109C39.2139 5.86392 40.1611 6.4712 40.9299 7.26534C41.7269 8.04086 42.3364 8.97514 42.721 10.0123C43.0492 10.8532 43.443 12.1236 43.5462 14.4502C43.6587 16.9727 43.6869 17.7293 43.6869 24.1104C43.6869 30.4916 43.6587 31.2391 43.5462 33.7616Z" fill="black"/>
<path d="M24.0046 11.8062C17.1973 11.8062 11.6741 17.3089 11.6741 24.0919C11.6741 30.8749 17.1973 36.3777 24.0046 36.3777C30.8124 36.3777 36.3352 30.8749 36.3352 24.0919C36.3352 17.3089 30.8124 11.8062 24.0046 11.8062ZM24.0046 32.0614C19.5884 32.0614 16.0061 28.4925 16.0061 24.0919C16.0061 19.6913 19.5884 16.1224 24.0046 16.1224C28.4213 16.1224 32.0032 19.6913 32.0032 24.0919C32.0032 28.4925 28.4213 32.0614 24.0046 32.0614Z" fill="black"/>
<path d="M39.7017 11.3203C39.7017 12.9042 38.4127 14.1885 36.8227 14.1885C35.233 14.1885 33.9441 12.9042 33.9441 11.3203C33.9441 9.73605 35.233 8.45215 36.8227 8.45215C38.4127 8.45215 39.7017 9.73605 39.7017 11.3203Z" fill="black"/>
</svg>
