<svg width="48" height="48" viewBox="0 0 48 48" fill="none" xmlns="http://www.w3.org/2000/svg">
<path d="M24 48C37.248 48 48 37.287 48 24.0872C48 10.8873 37.248 0.174316 24 0.174316C10.752 0.174316 0 10.8873 0 24.0872C0 37.287 10.752 48 24 48ZM33.744 35.3581V35.3601C32.13 35.3601 27.032 29.7246 12.704 32.65C12.326 32.7476 11.832 32.901 11.552 32.901C9.722 32.901 9.372 30.173 11.34 29.7565C19.266 28.0128 27.366 28.1663 34.274 32.2833C35.922 33.3315 35.222 35.3581 33.744 35.3581ZM36.35 29.0351C36.124 28.9753 36.19 29.1726 35.156 28.6306C29.106 25.0636 20.09 23.6248 12.066 25.7949C11.602 25.9205 11.35 26.046 10.914 26.046C8.772 26.046 8.204 22.8357 10.538 22.1801C19.97 19.5397 30.088 21.0801 37.132 25.2549C37.916 25.7172 38.226 26.317 38.226 27.154C38.216 28.1942 37.404 29.0351 36.35 29.0351ZM9.096 14.1195C18.142 11.4811 31.832 12.3141 40.344 17.264C42.526 18.5175 41.668 21.6879 39.348 21.6879L39.346 21.6859C38.842 21.6859 38.532 21.5604 38.096 21.3093C31.21 17.2122 18.888 16.2298 10.916 18.4477C10.566 18.5434 10.13 18.6968 9.666 18.6968C8.388 18.6968 7.412 17.7024 7.412 16.4211C7.412 15.1119 8.226 14.3706 9.096 14.1195Z" fill="black"/>
</svg>
